PathFileType	4	(X/Y/Z)	C:\Users\Basilio\Documents\Thesis Gigler\squatting_fais\c3dfiles\058\SJ_pre1\markers_experimental.trc
DataRate	CameraRate	NumFrames	NumMarkers	Units	OrigDataRate	OrigDataStartFrame	OrigNumFrames
200.000000	200.000000	4	61	mm	200.000000	983	1573
Frame#	Time	FHD			LBHD			RBHD			C7			T10			CLAV			LSHO			LUUPA			LMUPA			LDUPA			LLEP			LMEP			LRAD			LUL			LRFIN			RSHO			RUPA1			RMUPA			RDUPA			RLEP			RMEP			RRAD			RUL			RUFIN			LASI			RASI			USACR			LSACR			RSACR			LTHI1			LTHI2			LTHI3			LTHI4			LLFC			LMFC			LTIB1			LTIB2			LTIB3			LTIB4			LLMAL			LMMAL			LHEE			LMT1			LMT2			LMT5			RTHI			RTHI2			RTHI3			RTHI4			RLFC			RMFC			RTIB1			RTIB2			RTIB3			RTIB4			RLMAL			RMMAL			RHEE			RMT1			RMT2			RMT5			
		X1	Y1	Z1	X2	Y2	Z2	X3	Y3	Z3	X4	Y4	Z4	X5	Y5	Z5	X6	Y6	Z6	X7	Y7	Z7	X8	Y8	Z8	X9	Y9	Z9	X10	Y10	Z10	X11	Y11	Z11	X12	Y12	Z12	X13	Y13	Z13	X14	Y14	Z14	X15	Y15	Z15	X16	Y16	Z16	X17	Y17	Z17	X18	Y18	Z18	X19	Y19	Z19	X20	Y20	Z20	X21	Y21	Z21	X22	Y22	Z22	X23	Y23	Z23	X24	Y24	Z24	X25	Y25	Z25	X26	Y26	Z26	X27	Y27	Z27	X28	Y28	Z28	X29	Y29	Z29	X30	Y30	Z30	X31	Y31	Z31	X32	Y32	Z32	X33	Y33	Z33	X34	Y34	Z34	X35	Y35	Z35	X36	Y36	Z36	X37	Y37	Z37	X38	Y38	Z38	X39	Y39	Z39	X40	Y40	Z40	X41	Y41	Z41	X42	Y42	Z42	X43	Y43	Z43	X44	Y44	Z44	X45	Y45	Z45	X46	Y46	Z46	X47	Y47	Z47	X48	Y48	Z48	X49	Y49	Z49	X50	Y50	Z50	X51	Y51	Z51	X52	Y52	Z52	X53	Y53	Z53	X54	Y54	Z54	X55	Y55	Z55	X56	Y56	Z56	X57	Y57	Z57	X58	Y58	Z58	X59	Y59	Z59	X60	Y60	Z60	X61	Y61	Z61	

984	4.915	132.252914428711	1100.786865234375	-824.6614990234377	-33.75544357299805	1073.015014648438	-889.8160400390627	135.6956787109375	1110.260986328125	-967.190612792969	-75.83806610107423	1007.953552246094	-912.2031860351565	-331.4212341308594	862.8358154296877	-895.6007080078127	8.115184783935549	855.064880371094	-890.5097656250002	42.84163665771485	889.0086669921877	-1056.208618164063	-110.7733383178711	908.8399658203127	-1230.165649414063	-131.0493927001953	862.2625732421877	-1232.716064453125	-165.5127258300782	894.3259887695315	-1268.716430664063	-251.3597717285157	877.5857543945315	-1300.595947265625	-286.6468811035157	933.3205566406252	-1258.024658203125	-409.0491027832032	770.8797607421877	-1099.181518554688	-425.9302673339845	708.6865234375001	-1149.048706054688	-358.3912048339844	728.6196899414064	-1075.252685546875	30.62241554260255	918.636657714844	-726.7077026367189	-134.5191955566407	959.5982666015627	-573.9478759765626	-154.3714294433594	912.9751586914065	-570.6226196289064	-193.5658264160157	942.9055786132815	-537.9013671875001	-262.1820678710938	941.8673095703127	-507.5015563964845	-313.7349548339844	983.7629394531252	-571.0601806640626	-397.1841125488282	774.4632568359377	-679.7537841796876	-395.407684326172	722.6177978515626	-617.4244995117189	-347.3295288085938	721.2225341796876	-706.5117187500001	-375.6653442382813	603.0216674804689	-1003.03857421875	-380.2512512207032	609.9463500976564	-772.9824829101565	-455.6030273437501	795.7120361328127	-885.2329101562502	-484.813201904297	779.9924316406252	-912.5562133789065	-485.7789916992189	780.8215942382815	-855.348083496094	-306.8591918945313	569.8734741210939	-1126.833129882813	-222.9099273681641	555.5316162109376	-1140.968017578125	-195.2436676025391	585.8445434570314	-1112.462768554688	-195.1718750000001	501.8776855468751	-1151.329223632813	-125.8872604370117	450.0773925781251	-1154.090209960938	-97.9085388183594	431.0714416503907	-1034.001342773438	-110.2939987182617	311.9084167480469	-1127.522338867188	-180.4818572998047	314.9637756347657	-1179.229125976563	-149.1775512695313	288.9767456054688	-1159.298461914063	-198.4477539062501	221.1092834472657	-1133.626098632813	-352.5368041992188	91.03162384033205	-1147.881713867188	-317.7002868652344	91.60646057128908	-1061.123901367188	-420.1824035644532	50.84808349609376	-1095.456787109375	-195.1150817871094	60.66234970092775	-1112.989379882813	-198.1140289306641	61.2438201904297	-1160.334716796875	-253.4630889892579	37.43134689331055	-1208.473510742188	-405.5197143554689	572.3541259765626	-658.0480346679689	-340.1846923828126	581.3967895507814	-648.3084716796876	-322.1435852050782	608.7600097656251	-655.1879272460939	-284.4788818359376	520.9291381835939	-636.0443725585939	-151.4210510253907	448.6572570800782	-617.8815917968751	-102.5358428955078	435.5942687988282	-741.2785644531251	-162.5372314453125	267.9198303222657	-692.9857177734376	-240.8932800292969	222.8407745361329	-628.1948852539064	-210.8613586425782	200.9180145263672	-656.5174560546876	-237.6851501464844	164.0521087646485	-691.6173706054689	-342.0701293945313	95.82055664062501	-651.9478759765626	-299.0833740234376	96.48332977294925	-735.5964965820314	-408.0124816894532	53.90612792968751	-713.8650512695314	-193.3983612060547	53.45097732543947	-670.5200805664064	-203.7269592285157	61.48126602172853	-619.3424682617189	-257.0110778808594	29.05797767639161	-575.5953979492189	
985	4.92	132.4325256347657	1099.749145507813	-824.511169433594	-33.27030181884766	1071.903686523438	-889.7095336914065	136.2910461425782	1109.318725585938	-967.1116943359377	-75.65885162353517	1007.272277832031	-912.2121582031252	-330.9073486328126	862.4566040039065	-895.6206054687502	8.37376117706299	854.3702392578127	-890.508728027344	42.97968673706055	887.8686523437502	-1056.08837890625	-110.2813491821289	908.0164184570315	-1230.180297851563	-130.5326385498047	861.3209228515627	-1232.724609375	-164.7954559326172	893.5276489257815	-1268.856689453125	-250.5538330078126	876.549499511719	-1300.706787109375	-285.9155273437501	932.772888183594	-1258.009399414063	-408.9310607910157	770.5289306640627	-1099.190063476563	-425.7711791992189	708.3269042968751	-1149.0048828125	-358.2928161621094	728.3607788085939	-1075.268310546875	31.13058090209962	917.620300292969	-726.7542724609376	-133.8265686035157	958.7908325195315	-574.0659179687501	-153.8023071289063	912.2775878906252	-570.7197875976564	-192.9501190185547	942.0513916015627	-537.9351196289064	-261.4642333984376	941.0942993164065	-507.5664062500001	-312.6582336425782	983.1176757812502	-570.8238525390626	-397.1373596191407	774.057312011719	-679.7214965820314	-395.2131652832032	722.2224731445314	-617.4140014648439	-347.2505798339844	721.1083374023439	-706.4200439453126	-375.9215393066407	603.2662963867189	-1004.437744140625	-379.9157409667969	608.6931152343751	-774.3455200195315	-455.473114013672	795.2199707031252	-885.1343994140627	-484.6394958496095	779.7697753906252	-912.561462402344	-485.4051818847657	780.255310058594	-855.3423461914065	-306.8982543945313	569.6210327148439	-1126.843017578125	-222.9404754638672	555.4098510742189	-1140.988159179688	-195.2512969970704	585.6081542968751	-1112.44091796875	-195.0655059814454	501.7484436035157	-1151.306762695313	-125.8672332763672	449.8809509277345	-1154.079956054688	-97.83763122558597	430.9645996093751	-1033.919799804688	-110.2869873046875	311.8725585937501	-1127.449584960938	-180.4449157714844	314.9306030273438	-1179.2236328125	-149.1688232421875	288.8939514160157	-1159.29248046875	-198.4152221679688	220.9985351562501	-1133.637573242188	-352.5264282226563	91.03268432617189	-1147.849487304688	-317.7057189941407	91.57625579833986	-1061.11962890625	-420.1918945312501	50.86779785156251	-1095.405029296875	-195.0925750732422	60.63611221313478	-1112.998413085938	-198.171127319336	61.231990814209	-1160.28515625	-253.4029083251954	37.26805496215821	-1208.511108398438	-405.4233703613282	572.0836181640626	-658.0388793945314	-340.0597534179688	581.1790771484376	-648.3353271484376	-321.9503173828126	608.3003540039064	-655.2312011718751	-284.2131652832032	520.6765136718751	-636.1197509765626	-151.2538757324219	448.4795532226564	-618.0283813476564	-102.446762084961	435.3602600097657	-741.4273071289064	-162.4607696533203	267.8076477050782	-693.0938720703126	-240.8394165039063	222.8012084960938	-628.2184448242189	-210.8113708496094	200.9042053222657	-656.5826416015626	-237.620101928711	163.9225006103516	-691.7385253906251	-341.9959106445313	95.79807281494142	-651.9972534179689	-299.0421752929688	96.39979553222659	-735.6077880859376	-407.984832763672	53.94104385375978	-713.8997802734376	-193.2568359375001	53.34310531616212	-670.5467529296876	-203.7403411865235	61.46612930297853	-619.3538208007814	-257.0522766113282	29.07520866394044	-575.6075439453126	
986	4.925	133.2566986083985	1098.642456054688	-824.5364990234377	-32.6312599182129	1071.09228515625	-889.7484130859377	136.8634490966797	1108.201171875	-967.1446533203127	-74.96396636962892	1006.471374511719	-912.0407714843752	-330.4524536132813	861.9619140625002	-895.5418701171877	8.964365005493166	853.2943115234377	-890.497497558594	43.49690628051759	886.8601074218752	-1056.082153320313	-109.7230300903321	907.040710449219	-1230.17333984375	-130.2374725341797	860.4948730468752	-1232.654541015625	-164.151123046875	892.7664184570315	-1268.899780273438	-250.1157531738282	875.9772949218752	-1300.680053710938	-286.1408081054688	931.6560058593752	-1257.870727539063	-408.6822814941407	770.309753417969	-1099.221801757813	-425.5210876464845	708.0039062500001	-1149.034057617188	-358.1325683593751	727.9558105468751	-1075.292114257813	31.61450386047364	916.661804199219	-726.6716918945314	-133.1630096435547	957.9277954101565	-573.9798583984376	-153.3454284667969	911.3472290039065	-570.7509765625001	-192.5724487304688	941.3732910156252	-537.7452392578126	-260.8066711425782	940.670104980469	-507.5021362304689	-312.3029174804688	982.673034667969	-571.0172729492189	-397.0769042968751	773.7700805664065	-679.6968994140626	-395.1599121093751	721.9188842773439	-617.3617553710939	-347.1224670410157	720.2385253906251	-706.2763671875001	-375.0583496093751	602.9579467773439	-1003.745178222656	-378.9792480468751	609.1660156250001	-773.686462402344	-455.3569946289064	795.0118408203127	-885.073425292969	-484.5822143554689	779.2703857421877	-912.4390869140627	-485.3068847656251	779.961853027344	-855.2439575195315	-306.9005432128907	569.4398193359376	-1126.81591796875	-222.8682556152344	555.2494506835939	-1141.03662109375	-194.9426422119141	585.3743286132814	-1112.319702148438	-194.8537292480469	501.5767517089845	-1151.2802734375	-125.7266159057617	449.7698059082032	-1154.071044921875	-97.76135253906253	430.7943725585939	-1033.935546875	-110.1959915161133	311.7622985839844	-1127.56982421875	-180.379623413086	314.8873291015626	-1179.180419921875	-149.2013854980469	287.8893127441407	-1159.039306640625	-198.3834228515626	220.9317932128907	-1133.586059570313	-352.4725646972657	91.01641845703126	-1147.801635742188	-317.6500854492188	91.52077484130861	-1061.105346679688	-420.2296447753907	50.86862564086915	-1095.40234375	-195.1333770751954	60.61546707153322	-1113.038452148438	-198.1738281250001	61.40942382812501	-1160.355712890625	-253.5123138427735	37.20223999023438	-1208.454223632813	-405.3115844726564	571.8612060546876	-658.0069580078126	-339.9431762695313	580.9441528320314	-648.3768310546876	-321.9155883789063	608.0296630859376	-655.1645507812501	-284.0122680664063	520.2991943359376	-636.1799316406251	-151.1821441650391	448.3701477050782	-618.1231079101564	-102.2252807617188	435.1813964843751	-741.6165161132814	-162.3580627441407	267.6855163574219	-693.2291870117189	-240.8309173583985	222.8131866455079	-628.2891235351564	-210.7962036132813	200.8482360839844	-656.6621093750001	-237.5922241210938	163.7797546386719	-691.7955322265626	-341.9956970214844	95.8191604614258	-652.0106811523439	-298.9779968261719	96.38335418701175	-735.6833496093751	-408.013397216797	53.92177200317384	-713.9501342773439	-193.3038940429688	53.45089721679689	-670.5476684570314	-203.7277069091797	61.46411132812501	-619.4118041992189	-257.0108947753907	29.09911918640137	-575.6208496093751	
987	4.93	133.7827301025391	1097.385131835938	-824.5957641601565	-33.75610351562501	1069.3056640625	-889.247497558594	137.5098724365235	1107.346435546875	-967.1702270507815	-74.88994598388673	1005.4365234375	-911.8521728515627	-329.9588012695313	861.4709472656252	-895.4636230468752	9.323620796203615	852.3343505859377	-890.357604980469	44.09889602661134	885.7186279296877	-1056.0390625	-109.1978302001953	906.3088378906252	-1230.074584960938	-129.6342010498047	859.9710083007815	-1232.493530273438	-164.1278076171875	892.0264282226565	-1268.62353515625	-249.8589630126954	875.6309204101565	-1300.555297851563	-285.6705627441407	931.3049316406252	-1257.865966796875	-408.5142517089845	769.9055175781252	-1099.262451171875	-425.3402404785157	707.6931152343751	-1149.04736328125	-357.6222839355469	727.7049560546876	-1075.533203125	32.22788238525391	915.455749511719	-726.7405395507814	-132.7227630615235	957.097839355469	-573.9349365234376	-152.9099426269532	910.7160644531252	-570.5189208984376	-191.7577209472657	940.7684326171877	-537.8297119140626	-260.2125854492188	940.086364746094	-507.5546264648439	-311.6244812011719	982.166931152344	-570.9581909179689	-396.8291015625001	773.463806152344	-679.5609130859376	-395.0005187988282	721.4180908203126	-617.3862304687501	-346.9048461914063	720.0706176757814	-706.2338867187501	-375.6811523437501	602.5327148437501	-1004.1201171875	-379.4481811523438	608.2907714843751	-774.062194824219	-455.1267395019532	794.6875610351565	-885.0181274414065	-484.4766540527345	779.0901489257815	-912.390563964844	-485.1526489257814	779.676452636719	-855.230895996094	-306.8735351562501	569.2492065429689	-1126.7744140625	-222.8230590820313	555.0808105468751	-1140.988525390625	-194.9354248046876	585.2731933593751	-1112.329711914063	-194.8301544189454	501.4404907226564	-1151.21826171875	-125.6006393432617	449.6073303222657	-1154.05859375	-97.71821594238284	430.6856384277345	-1033.915649414063	-110.2061386108399	311.7680664062501	-1127.451904296875	-180.3558044433594	314.8328552246094	-1179.134033203125	-149.0191040039063	288.5434875488282	-1159.192626953125	-197.9574279785157	223.1114807128907	-1133.66259765625	-352.5564880371094	91.01535797119142	-1147.822021484375	-317.5910034179688	91.44406890869142	-1061.122924804688	-420.2130737304689	50.8804168701172	-1095.412231445313	-195.1077880859376	60.59315872192384	-1113.046142578125	-197.6443939208985	60.78503799438478	-1160.527221679688	-253.4628601074219	37.27234649658204	-1208.51806640625	-405.022430419922	571.6171264648439	-658.0247192382814	-339.6896362304688	580.6948852539064	-648.4461669921876	-321.7503356933594	607.8163452148439	-655.2122192382814	-283.9416503906251	520.1431884765626	-636.2706909179689	-151.0059204101563	448.178924560547	-618.2918090820314	-102.203369140625	434.9389648437501	-741.6939086914064	-162.1911315917969	267.6185913085938	-693.3497924804689	-240.6686401367188	222.7255401611329	-628.3922729492189	-210.7692260742188	200.905502319336	-656.7632446289064	-237.4227142333985	163.6646118164063	-691.8660888671876	-341.9197692871094	95.81591796875001	-652.0625610351564	-298.9775390625001	96.36899566650393	-735.7111816406251	-408.0064392089845	53.90171051025392	-713.9362792968751	-193.2454376220704	53.33588027954103	-670.5281982421876	-203.8409423828126	61.35215377807619	-619.3360595703126	-257.0293273925782	29.06857872009278	-575.6119995117189	
